<?xml version="1.0" encoding="utf-8"?>
<!-- Generator: Adobe Illustrator 18.0.0, SVG Export Plug-In . SVG Version: 6.00 Build 0)  -->
<!DOCTYPE svg PUBLIC "-//W3C//DTD SVG 1.1//EN" "http://www.w3.org/Graphics/SVG/1.1/DTD/svg11.dtd">
<svg version="1.1" id="Calque_2" xmlns="http://www.w3.org/2000/svg" xmlns:xlink="http://www.w3.org/1999/xlink" x="0px" y="0px"
	 viewBox="0 0 335.6 321.2" enable-background="new 0 0 335.6 321.2" xml:space="preserve">
<g>
	<path d="M167.8,317.2c-86.3,0-156.6-70.2-156.6-156.6C11.2,74.2,81.5,4,167.8,4c86.3,0,156.6,70.2,156.6,156.6
		C324.4,246.9,254.1,317.2,167.8,317.2z M167.8,24.8C92.9,24.8,32,85.7,32,160.6c0,74.9,60.9,135.8,135.8,135.8
		c74.9,0,135.8-60.9,135.8-135.8C303.6,85.7,242.7,24.8,167.8,24.8z"/>
</g>
<g>
	<path d="M196.6,245.7c-6.2,0-12.8-1.9-18.6-3.6c-4.1-1.2-7.9-2.3-10.2-2.3c-2.3,0-6.2,1.1-10.2,2.3c-5.8,1.7-12.4,3.6-18.6,3.6
		c-15.2,0-31.4-8.7-31.4-33.3c0-25.9,10.5-33.7,27.6-44.4c5.8-3.6,8.2-8.9,10.7-14.5c3.6-8,7.6-17,21.9-17c14.3,0,18.3,9,21.9,17
		c2.5,5.6,4.9,10.9,10.7,14.5c17.1,10.6,27.6,18.5,27.6,44.4C228,236.9,211.8,245.7,196.6,245.7z M167.8,230.9
		c3.6,0,7.8,1.2,12.7,2.6c5.2,1.5,11.2,3.2,16.1,3.2c8.4,0,22.5-3.2,22.5-24.4c0-21.3-7.2-26.7-23.4-36.8
		c-8.1-5-11.4-12.5-14.1-18.5c-3.6-8.1-5.6-11.7-13.8-11.7s-10.1,3.6-13.8,11.7c-2.7,6-6,13.4-14.1,18.5
		c-16.2,10.1-23.4,15.4-23.4,36.8c0,21.2,14.1,24.4,22.5,24.4c5,0,10.9-1.7,16.1-3.2C160,232.1,164.2,230.9,167.8,230.9z"/>
</g>
<g>
	<path d="M138.9,140.4c-0.9,0-1.9-0.1-2.8-0.2c-6.8-1-12.6-5.5-16.3-12.6c-3.5-6.6-4.7-14.9-3.5-23.3c2.4-16.5,13.8-28.9,26.4-28.9
		c0.9,0,1.9,0.1,2.8,0.2c6.8,1,12.6,5.5,16.3,12.6c3.5,6.6,4.7,14.9,3.5,23.3C163,128,151.6,140.4,138.9,140.4z M142.8,84.3
		c-8.1,0-15.9,9.4-17.6,21.3c-1,6.5,0,12.9,2.6,17.9c2.4,4.5,5.8,7.3,9.7,7.9c0.5,0.1,1,0.1,1.5,0.1c8.1,0,15.9-9.4,17.6-21.3
		c1-6.5,0-12.9-2.6-17.9c-2.4-4.5-5.8-7.3-9.7-7.9C143.8,84.4,143.3,84.3,142.8,84.3z"/>
</g>
<g>
	<path d="M96.2,183.5C96.2,183.5,96.2,183.5,96.2,183.5c-1.1,0-2.2-0.1-3.2-0.3C80.7,181,73,166,76,149.9
		c2.7-14.8,13-25.5,24.5-25.5c1.1,0,2.2,0.1,3.2,0.3c12.3,2.3,19.9,17.2,17,33.3C117.9,172.8,107.6,183.5,96.2,183.5z M100.5,133.4
		c-6.9,0-13.8,8-15.7,18.2c-2,11.1,2.5,21.6,9.8,23c0.5,0.1,1.1,0.1,1.6,0.1c6.9,0,13.8-8,15.7-18.2c2-11.1-2.5-21.6-9.8-23
		C101.5,133.4,101,133.4,100.5,133.4z"/>
</g>
<g>
	<path d="M196.7,140.4c-12.7,0-24-12.4-26.4-28.9c-1.2-8.4,0-16.6,3.5-23.3c3.7-7.1,9.5-11.6,16.3-12.6c0.9-0.1,1.9-0.2,2.8-0.2
		c12.7,0,24,12.4,26.4,28.9c1.2,8.4,0,16.6-3.5,23.3c-3.7,7.1-9.5,11.6-16.3,12.6C198.6,140.4,197.6,140.4,196.7,140.4z M192.8,84.3
		c-0.5,0-1,0-1.5,0.1c-3.9,0.6-7.4,3.4-9.7,7.9c-2.6,5-3.5,11.3-2.6,17.9c1.7,11.9,9.5,21.3,17.6,21.3c0.5,0,1,0,1.5-0.1
		c3.9-0.6,7.4-3.4,9.7-7.9c2.6-5,3.5-11.3,2.6-17.9C208.7,93.7,201,84.3,192.8,84.3z"/>
</g>
<g>
	<path d="M239.4,183.5c-11.5,0-21.8-10.7-24.5-25.5c-3-16.1,4.7-31.1,17-33.3c1.1-0.2,2.1-0.3,3.2-0.3c11.5,0,21.8,10.7,24.5,25.5
		c3,16.1-4.7,31.1-17,33.3C241.6,183.5,240.5,183.5,239.4,183.5z M235.1,133.4c-0.5,0-1.1,0-1.6,0.1c-7.3,1.3-11.8,11.9-9.8,23
		c1.9,10.2,8.8,18.2,15.7,18.2c0.5,0,1.1,0,1.6-0.1c7.3-1.3,11.8-11.9,9.8-23C249,141.3,242.1,133.4,235.1,133.4z"/>
</g>
</svg>
