<?xml version="1.0" encoding="utf-8"?>
<!-- Generator: Adobe Illustrator 18.0.0, SVG Export Plug-In . SVG Version: 6.00 Build 0)  -->
<!DOCTYPE svg PUBLIC "-//W3C//DTD SVG 1.1//EN" "http://www.w3.org/Graphics/SVG/1.1/DTD/svg11.dtd">
<svg version="1.1" id="Calque_2" xmlns="http://www.w3.org/2000/svg" xmlns:xlink="http://www.w3.org/1999/xlink" x="0px" y="0px"
	 viewBox="0 0 347.4 86.6" enable-background="new 0 0 347.4 86.6" xml:space="preserve">
<g>
	<path d="M134.1,2h-28.9c-3.1,0-5.7,2.5-5.7,5.7v2.7c0,3.1,2.5,5.7,5.7,5.7h1.9c3.1,0,5.7,2.5,5.7,5.7v57.4c0,3.1,2.5,5.7,5.7,5.7
		h2.4c3.1,0,5.7-2.5,5.7-5.7V21.7c0-3.1,2.5-5.7,5.7-5.7h1.9c3.1,0,5.7-2.5,5.7-5.7V7.7C139.7,4.6,137.2,2,134.1,2z"/>
	<path d="M292.3,2h-28.9c-3.1,0-5.7,2.5-5.7,5.7v2.7c0,3.1,2.5,5.7,5.7,5.7h1.9c3.1,0,5.7,2.5,5.7,5.7v57.4c0,3.1,2.5,5.7,5.7,5.7
		h2.4c3.1,0,5.7-2.5,5.7-5.7V21.7c0-3.1,2.5-5.7,5.7-5.7h1.9c3.1,0,5.7-2.5,5.7-5.7V7.7C298,4.6,295.4,2,292.3,2z"/>
	<path d="M254,84.8h2.2c3.6,0,6.3-3.3,5.5-6.8L245.8,2h-0.1h-13.6H232l-15.8,75.9c-0.7,3.5,2,6.8,5.5,6.8h2.2c2.7,0,5-1.9,5.5-4.5
		l2-9.6c0.5-2.6,2.9-4.5,5.5-4.5h3.9c2.7,0,5,1.9,5.5,4.5l2,9.6C249,82.9,251.3,84.8,254,84.8z M235.3,52.2l3.6-17.5l3.6,17.5H235.3
		z"/>
	<path d="M59,2c-3.1,0-5.7,2.5-5.7,5.7V16v20.4v14v20.4v8.3c0,3.1,2.5,5.7,5.7,5.7h8.1h17.8c3.1,0,5.7-2.5,5.7-5.7v-2.7
		c0-3.1-2.5-5.7-5.7-5.7H72.7c-3.1,0-5.7-2.5-5.7-5.7v-9c0-3.1,2.5-5.7,5.7-5.7h5.2c3.1,0,5.7-2.5,5.7-5.7v-2.7
		c0-3.1-2.5-5.7-5.7-5.7h-5.2c-3.1,0-5.7-2.5-5.7-5.7v-9c0-3.1,2.5-5.7,5.7-5.7h12.2c3.1,0,5.7-2.5,5.7-5.7V7.7
		C90.6,4.6,88,2,84.9,2H59z"/>
	<path d="M312.5,2c-3.1,0-5.7,2.5-5.7,5.7V16v20.4v14v20.4v8.3c0,3.1,2.5,5.7,5.7,5.7h8.1h17.8c3.1,0,5.7-2.5,5.7-5.7v-2.7
		c0-3.1-2.5-5.7-5.7-5.7h-12.2c-3.1,0-5.7-2.5-5.7-5.7v-9c0-3.1,2.5-5.7,5.7-5.7h5.2c3.1,0,5.7-2.5,5.7-5.7v-2.7
		c0-3.1-2.5-5.7-5.7-5.7h-5.2c-3.1,0-5.7-2.5-5.7-5.7v-9c0-3.1,2.5-5.7,5.7-5.7h12.2c3.1,0,5.7-2.5,5.7-5.7V7.7
		c0-3.1-2.5-5.7-5.7-5.7H312.5z"/>
	<path d="M211.4,42.1l-4.4-4.4V7.5c0-3-2.5-5.5-5.5-5.5h0h-8.3h-1c-2.6,0-4.9,1.8-5.4,4.4l-8.6,41.1c-0.1,0.5-0.9,0.5-1,0l-8.6-41.1
		C168.3,3.8,166,2,163.4,2h-1h-8.3h0c-3,0-5.5,2.5-5.5,5.5v30.3l-4.4,4.4c-0.7,0.7-0.7,1.8,0,2.5l4.4,4.4v30.3c0,3,2.5,5.5,5.5,5.5
		h2.8c3,0,5.5-2.5,5.5-5.5V54.9c0-1.6,2.4-1.9,2.7-0.3l5.7,27.2c0.1,4,14,4,14.2,0l5.7-27.2c0.3-1.6,2.7-1.4,2.7,0.3v24.4
		c0,3,2.5,5.5,5.5,5.5h2.8c3,0,5.5-2.5,5.5-5.5V49l4.4-4.4C212.1,44,212.1,42.8,211.4,42.1z"/>
	<path d="M38.7,1.8H17.1H9c-3.1,0-5.7,2.5-5.7,5.7v11c1-1.2,2.5-2,4.9-2c4.8,0,6.3,2,8.2,5.1c0.7,1.1,1.7,1.5,2.7,2
		c1.5,0.7,3.2,1.4,3.2,4.1c0,2.7-1.7,3.4-3.2,4.1c-1,0.5-2,0.9-2.7,2C14.5,37,13,39,8.2,39c-2.3,0-3.9-0.8-4.9-2v17.8v24.2
		c0,3.1,2.5,5.7,5.7,5.7h2.4c3.1,0,5.7-2.5,5.7-5.7V60.5c0-3.1,2.5-5.7,5.7-5.7h16c3.1,0,5.7-2.5,5.7-5.7V7.5
		C44.4,4.4,41.9,1.8,38.7,1.8z M18.3,19c-2.7-0.5-4.7-2.4-4.7-4.5c0-0.2,0-0.4,0.1-0.6c0.4-2.3,3.2-3.7,6.2-3.2
		c2.7,0.5,4.7,2.4,4.7,4.5c0,0.2,0,0.4-0.1,0.6C24.1,18.1,21.3,19.6,18.3,19z M19.8,44.8c-3,0.5-5.8-0.9-6.2-3.2
		c0-0.2-0.1-0.4-0.1-0.6c0-2.1,2-4,4.7-4.5c3-0.5,5.8,0.9,6.2,3.2c0,0.2,0.1,0.4,0.1,0.6C24.5,42.4,22.6,44.3,19.8,44.8z M28.3,37.3
		c-1.6,0.2-3.1,0-4.3-0.6c-1.3-0.7-2.2-1.8-2.3-3c0-0.2,0-0.3,0-0.5c0-2.4,2.3-4.5,5.4-4.9c1.6-0.2,3.1,0,4.3,0.6
		c1.3,0.7,2.2,1.8,2.3,3c0,0.2,0,0.3,0,0.5C33.7,34.8,31.3,36.9,28.3,37.3z M33.6,23.6c-0.2,1.3-1,2.3-2.3,3
		c-1.2,0.6-2.8,0.9-4.3,0.6c-3.1-0.4-5.4-2.6-5.4-4.9c0-0.2,0-0.3,0-0.5c0.2-1.3,1-2.3,2.3-3c1.2-0.6,2.8-0.9,4.3-0.6
		c3.1,0.4,5.4,2.6,5.4,4.9C33.7,23.3,33.6,23.5,33.6,23.6z"/>
</g>
</svg>
