<?xml version="1.0" encoding="utf-8"?>
<!-- Generator: Adobe Illustrator 18.0.0, SVG Export Plug-In . SVG Version: 6.00 Build 0)  -->
<!DOCTYPE svg PUBLIC "-//W3C//DTD SVG 1.1//EN" "http://www.w3.org/Graphics/SVG/1.1/DTD/svg11.dtd">
<svg version="1.1" xmlns="http://www.w3.org/2000/svg" xmlns:xlink="http://www.w3.org/1999/xlink" x="0px" y="0px"
	 viewBox="0 0 86.6 86.6" enable-background="new 0 0 86.6 86.6" xml:space="preserve">
<g id="Calque_2">
</g>
<g id="Calque_3">
	<path fill="#ECDEBC" d="M58.2,1.9H36.5h-8.1c-3.1,0-5.7,2.5-5.7,5.7v11c1-1.2,2.5-2,4.9-2c4.8,0,6.3,2,8.2,5.1
		c0.7,1.1,1.7,1.5,2.7,2c1.5,0.7,3.2,1.4,3.2,4.1c0,2.7-1.7,3.4-3.2,4.1c-1,0.5-2,0.9-2.7,2c-2,3.2-3.4,5.1-8.2,5.1
		c-2.3,0-3.9-0.8-4.9-2v17.8v24.2c0,3.1,2.5,5.7,5.7,5.7h2.4c3.1,0,5.7-2.5,5.7-5.7V60.5c0-3.1,2.5-5.7,5.7-5.7h16
		c3.1,0,5.7-2.5,5.7-5.7V7.5C63.9,4.4,61.3,1.9,58.2,1.9z M37.7,19C35,18.5,33,16.6,33,14.5c0-0.2,0-0.4,0.1-0.6
		c0.4-2.3,3.2-3.7,6.2-3.2c2.7,0.5,4.7,2.4,4.7,4.5c0,0.2,0,0.4-0.1,0.6C43.5,18.2,40.7,19.6,37.7,19z M39.3,44.9
		c-3,0.5-5.8-0.9-6.2-3.2c0-0.2-0.1-0.4-0.1-0.6c0-2.1,2-4,4.7-4.5c3-0.5,5.8,0.9,6.2,3.2c0,0.2,0.1,0.4,0.1,0.6
		C44,42.4,42,44.4,39.3,44.9z M47.7,37.4c-1.6,0.2-3.1,0-4.3-0.6c-1.3-0.7-2.2-1.8-2.3-3c0-0.2,0-0.3,0-0.5c0-2.4,2.3-4.5,5.4-4.9
		c1.6-0.2,3.1,0,4.3,0.6c1.3,0.7,2.2,1.8,2.3,3c0,0.2,0,0.3,0,0.5C53.1,34.8,50.8,36.9,47.7,37.4z M53.1,23.6c-0.2,1.3-1,2.3-2.3,3
		c-1.2,0.6-2.8,0.9-4.3,0.6c-3.1-0.4-5.4-2.6-5.4-4.9c0-0.2,0-0.3,0-0.5c0.2-1.3,1-2.3,2.3-3c1.2-0.6,2.8-0.9,4.3-0.6
		c3.1,0.4,5.4,2.6,5.4,4.9C53.1,23.3,53.1,23.5,53.1,23.6z"/>
</g>
</svg>
