<?xml version="1.0" encoding="utf-8"?>
<!-- Generator: Adobe Illustrator 18.0.0, SVG Export Plug-In . SVG Version: 6.00 Build 0)  -->
<!DOCTYPE svg PUBLIC "-//W3C//DTD SVG 1.1//EN" "http://www.w3.org/Graphics/SVG/1.1/DTD/svg11.dtd">
<svg version="1.1" id="Calque_2" xmlns="http://www.w3.org/2000/svg" xmlns:xlink="http://www.w3.org/1999/xlink" x="0px" y="0px"
	 viewBox="0 0 211.7 211.7" enable-background="new 0 0 211.7 211.7" xml:space="preserve">
<g>
	<path d="M142.6,3.4H89.1h-20c-7.7,0-14,6.3-14,14v27.2c2.4-2.9,6.3-4.8,12-4.8c11.9,0,15.5,4.8,20.4,12.7c1.7,2.7,4.1,3.8,6.7,4.9
		c3.7,1.6,7.8,3.5,7.8,10.1c0,6.6-4.2,8.4-7.8,10.1c-2.6,1.2-5,2.2-6.7,4.9c-4.9,7.9-8.5,12.7-20.4,12.7c-5.8,0-9.6-2-12-4.8v44.1
		v59.9c0,7.7,6.3,14,14,14h6c7.7,0,14-6.3,14-14v-45.9c0-7.7,6.3-14,14-14h39.5c7.7,0,14-6.3,14-14v-103
		C156.6,9.7,150.4,3.4,142.6,3.4z M92.1,45.8c-6.8-1.2-11.7-6-11.7-11.2c0-0.5,0-1,0.1-1.5c1-5.7,7.9-9.1,15.3-7.8
		c6.8,1.2,11.7,6,11.7,11.2c0,0.5,0,1-0.1,1.5C106.4,43.7,99.5,47.2,92.1,45.8z M95.8,109.7c-7.4,1.4-14.3-2.1-15.3-7.8
		c-0.1-0.5-0.1-1-0.1-1.5c0-5.3,4.9-10,11.7-11.2c7.4-1.4,14.3,2.1,15.3,7.8c0.1,0.5,0.1,1,0.1,1.5
		C107.5,103.7,102.6,108.4,95.8,109.7z M116.8,91.1c-3.8,0.6-7.6,0-10.7-1.6c-3.3-1.7-5.3-4.4-5.8-7.5c-0.1-0.4-0.1-0.9-0.1-1.3
		c0-5.8,5.7-11,13.3-12.1c3.8-0.6,7.6,0,10.7,1.6c3.3,1.7,5.3,4.4,5.8,7.5c0.1,0.4,0.1,0.9,0.1,1.3C130.1,84.8,124.4,90,116.8,91.1z
		 M130,57.3c-0.5,3.1-2.5,5.8-5.8,7.5c-3.1,1.6-6.9,2.2-10.7,1.6c-7.6-1.1-13.3-6.3-13.3-12.1c0-0.4,0-0.9,0.1-1.3
		c0.5-3.1,2.5-5.8,5.8-7.5c3.1-1.6,6.9-2.2,10.7-1.6c7.6,1.1,13.3,6.3,13.3,12.1C130.1,56.4,130,56.8,130,57.3z"/>
</g>
</svg>
